Coordinates
version=1
nRows=21
nColumns=12
inDegrees=yes

Units are S.I. units (second, meters, Newtons, ...)
Angles are in degrees

endheader
time	SC_y	SC_z	SC_x	AC_y	AC_z	AC_x	GH_y	GH_z	GH_yy	EL_x	PS_y
       0.0              -17.85         -2.218          6.627          40.83         -4.032         -2.828          -88.1          12.44         -119.6          128.2          130.7
  0.007025              -17.85         -2.216          6.638          40.83         -4.031         -2.827         -88.07          12.43         -119.6          128.2          130.7
   0.01405              -17.86         -2.213           6.65          40.83          -4.03         -2.826         -88.04          12.43         -119.6          128.2          130.7
   0.02108              -17.86          -2.21          6.662          40.83         -4.028         -2.825          -88.0          12.42         -119.6          128.2          130.7
    0.0281              -17.87         -2.207          6.675          40.83         -4.027         -2.823         -87.96          12.42         -119.5          128.2          130.7
   0.03513              -17.88         -2.204          6.688          40.83         -4.026         -2.822         -87.92          12.41         -119.5          128.2          130.7
   0.04215              -17.88         -2.201          6.703          40.82         -4.024          -2.82         -87.87          12.41         -119.5          128.2          130.7
   0.04918              -17.89         -2.197          6.719          40.82         -4.023         -2.819         -87.82           12.4         -119.5          128.2          130.7
    0.0562               -17.9         -2.193          6.736          40.82         -4.021         -2.817         -87.77           12.4         -119.4          128.2          130.6
   0.06323              -17.91         -2.189          6.754          40.82         -4.019         -2.815         -87.72          12.39         -119.4          128.1          130.6
   0.07025              -17.92         -2.185          6.773          40.82         -4.017         -2.813         -87.66          12.38         -119.4          128.1          130.6
   0.07728              -17.92          -2.18          6.794          40.81         -4.015          -2.81         -87.59          12.38         -119.3          128.1          130.6
    0.0843              -17.93         -2.174          6.817          40.81         -4.013         -2.808         -87.53          12.37         -119.3          128.1          130.6
   0.09133              -17.95         -2.169          6.841          40.81         -4.011         -2.805         -87.45          12.36         -119.3          128.1          130.6
   0.09835              -17.96         -2.163          6.868           40.8         -4.008         -2.803         -87.37          12.35         -119.2          128.1          130.5
    0.1054              -17.97         -2.156          6.896           40.8         -4.005         -2.799         -87.28          12.34         -119.2          128.1          130.5
    0.1124              -17.98         -2.149          6.927           40.8         -4.002         -2.796         -87.19          12.33         -119.1          128.1          130.5
    0.1194               -18.0         -2.141          6.961          40.79         -3.999         -2.792         -87.09          12.32         -119.1          128.0          130.5
    0.1265              -18.02         -2.133          6.998          40.79         -3.995         -2.789         -86.97          12.31         -119.0          128.0          130.4
    0.1335              -18.03         -2.123          7.039          40.78         -3.991         -2.784         -86.85          12.29         -118.9          128.0          130.4
    0.1405              -18.06         -2.113          7.083          40.78         -3.987         -2.779         -86.71          12.28         -118.8          128.0          130.4
